<svg width="50" height="65" viewBox="0 0 50 65" fill="none" xmlns="http://www.w3.org/2000/svg">
<g clip-path="url(#clip0_258_4071)">
<path d="M-156.366 -1.67283e-05L-156.366 4.42732L2.1796 4.42734C13.8495 4.42734 17.5516 18.6311 17.5516 24.7531L17.5516 33.0038L50 33.0038L50 23.1558C50 7.98541 37.7607 3.67111e-07 15.5577 -1.69822e-06L-156.366 -1.67283e-05Z" fill="#FDFEFF"/>
<path d="M-156.366 65L-156.366 60.5726L2.17959 60.5727C13.8495 60.5727 17.5516 46.3689 17.5516 40.2469L17.5516 31.9962L50 31.9962L50 41.8442C50 57.0146 37.7607 65 15.5577 65L-156.366 65Z" fill="#FDFEFF"/>
</g>
<defs>
<clipPath id="clip0_258_4071">
<rect width="50" height="65" fill="white" transform="translate(50 65) rotate(-180)"/>
</clipPath>
</defs>
</svg>
