<svg width="107" height="65" viewBox="0 0 107 65" fill="none" xmlns="http://www.w3.org/2000/svg">
<g clip-path="url(#clip0_306_4174)">
<path d="M53 0V4.42735L59.5016 4.42738C71.093 4.42738 74.7701 18.6312 74.7701 24.7531V33.0038L107 33.0038V23.1558C107 7.98545 94.8431 3.43247e-05 72.7897 3.22594e-05L53 0Z" fill="black"/>
<path d="M53 65L53 60.5727L59.5016 60.5727C71.0929 60.5727 74.7701 46.3689 74.7701 40.247V31.9962L107 31.9962L107 41.8442C107 57.0146 94.8431 65 72.7897 65L53 65Z" fill="black"/>
<path d="M54 0V4.42735L47.4984 4.42738C35.9071 4.42738 32.2299 18.6312 32.2299 24.7531V33.0038L5.77101e-06 33.0038L4.91587e-06 23.1558C3.21578e-06 7.98545 12.1569 3.43247e-05 34.2103 3.22594e-05L54 0Z" fill="black"/>
<path d="M54 65V60.5727L47.4984 60.5727C35.9071 60.5727 32.2299 46.3689 32.2299 40.247L32.2299 31.9962L0 31.9962L2.74965e-06 41.8442C6.2134e-06 57.0146 12.1569 65 34.2103 65L54 65Z" fill="black"/>
<path d="M66.797 21.9293C63.703 19.4415 58.8085 19.0206 58.6005 19.0027C58.2739 18.9751 57.9635 19.1603 57.8303 19.4593C57.8205 19.4788 57.7132 19.7242 57.5946 20.1061C59.6405 20.4506 62.1544 21.1461 64.4294 22.5582C64.7934 22.7841 64.9055 23.2635 64.6796 23.6291C64.5334 23.8663 64.2783 23.9963 64.0183 23.9963C63.8785 23.9963 63.7371 23.959 63.6087 23.8793C59.699 21.4548 54.8143 21.333 53.875 21.333C52.9357 21.333 48.0494 21.4548 44.1429 23.8793C43.7773 24.1068 43.2995 23.9931 43.072 23.6291C42.8445 23.2635 42.9583 22.7857 43.3223 22.5582C45.5973 21.1477 48.1095 20.4506 50.157 20.1061C50.0367 19.7226 49.9295 19.4788 49.9214 19.4593C49.7865 19.1603 49.4778 18.9718 49.1495 19.0043C48.9431 19.0206 44.0486 19.4415 40.9124 21.9651C39.2744 23.478 36 32.331 36 39.9847C36 40.1196 36.0357 40.2528 36.1024 40.3698C38.3627 44.3397 44.528 45.3797 45.9336 45.4252C45.9417 45.4252 45.9499 45.4252 45.958 45.4252C46.2066 45.4252 46.4406 45.3066 46.5869 45.1051L48.0088 43.1518C44.1754 42.1606 42.2173 40.4787 42.1035 40.3796C41.7818 40.0952 41.7509 39.6045 42.0353 39.2827C42.3196 38.961 42.8088 38.9301 43.1305 39.2128C43.1776 39.2551 46.7835 42.315 53.875 42.315C60.9795 42.315 64.5854 39.2421 64.6211 39.2112C64.9429 38.9317 65.4336 38.961 65.7164 39.2843C65.9991 39.6061 65.9683 40.0952 65.6481 40.378C65.5344 40.4787 63.5763 42.159 59.7429 43.1502L61.1648 45.1035C61.311 45.305 61.545 45.4236 61.7936 45.4236C61.8017 45.4236 61.8099 45.4236 61.818 45.4236C63.2236 45.3797 69.3889 44.3397 71.6492 40.3682C71.7142 40.2512 71.75 40.1196 71.75 39.9847C71.75 32.331 68.4756 23.478 66.797 21.9293ZM48.8229 36.8761C47.3214 36.8761 46.1026 35.4835 46.1026 33.7675C46.1026 32.0515 47.3197 30.6588 48.8229 30.6588C50.326 30.6588 51.5431 32.0515 51.5431 33.7675C51.5431 35.4835 50.326 36.8761 48.8229 36.8761ZM58.9271 36.8761C57.4256 36.8761 56.2069 35.4835 56.2069 33.7675C56.2069 32.0515 57.424 30.6588 58.9271 30.6588C60.4286 30.6588 61.6474 32.0515 61.6474 33.7675C61.6474 35.4835 60.4286 36.8761 58.9271 36.8761Z" fill="#F74828"/>
</g>
<defs>
<clipPath id="clip0_306_4174">
<rect width="107" height="65" fill="white"/>
</clipPath>
</defs>
</svg>
