<svg width="107" height="65" viewBox="0 0 107 65" fill="none" xmlns="http://www.w3.org/2000/svg">
<g clip-path="url(#clip0_306_4178)">
<path d="M53 0V4.42735L59.5016 4.42738C71.093 4.42738 74.7701 18.6312 74.7701 24.7531V33.0038L107 33.0038V23.1558C107 7.98545 94.8431 3.43247e-05 72.7897 3.22594e-05L53 0Z" fill="black"/>
<path d="M53 65L53 60.5727L59.5016 60.5727C71.0929 60.5727 74.7701 46.3689 74.7701 40.247V31.9962L107 31.9962L107 41.8442C107 57.0146 94.8431 65 72.7897 65L53 65Z" fill="black"/>
<path d="M54 0V4.42735L47.4984 4.42738C35.9071 4.42738 32.2299 18.6312 32.2299 24.7531V33.0038L5.77101e-06 33.0038L4.91587e-06 23.1558C3.21578e-06 7.98545 12.1569 3.43247e-05 34.2103 3.22594e-05L54 0Z" fill="black"/>
<path d="M54 65V60.5727L47.4984 60.5727C35.9071 60.5727 32.2299 46.3689 32.2299 40.247L32.2299 31.9962L0 31.9962L2.74965e-06 41.8442C6.2134e-06 57.0146 12.1569 65 34.2103 65L54 65Z" fill="black"/>
<path d="M46.62 17C41.3142 17 37 21.1976 37 26.36V39.32C37 44.4824 41.3142 48.68 46.62 48.68H59.94C65.2458 48.68 69.56 44.4824 69.56 39.32V26.36C69.56 21.1976 65.2458 17 59.94 17H46.62ZM62.16 22.76C62.974 22.76 63.64 23.408 63.64 24.2C63.64 24.992 62.974 25.64 62.16 25.64C61.346 25.64 60.68 24.992 60.68 24.2C60.68 23.408 61.346 22.76 62.16 22.76ZM53.28 24.92C57.7718 24.92 61.42 28.4696 61.42 32.84C61.42 37.2104 57.7718 40.76 53.28 40.76C48.7882 40.76 45.14 37.2104 45.14 32.84C45.14 28.4696 48.7882 24.92 53.28 24.92ZM53.28 26.36C49.6096 26.36 46.62 29.2688 46.62 32.84C46.62 36.4112 49.6096 39.32 53.28 39.32C56.9504 39.32 59.94 36.4112 59.94 32.84C59.94 29.2688 56.9504 26.36 53.28 26.36Z" fill="#F74828"/>
</g>
<defs>
<clipPath id="clip0_306_4178">
<rect width="107" height="65" fill="white"/>
</clipPath>
</defs>
</svg>
