<svg width="107" height="65" viewBox="0 0 107 65" fill="none" xmlns="http://www.w3.org/2000/svg">
<g clip-path="url(#clip0_305_4134)">
<path d="M54 -3.52704e-05L54 4.42731L60.5016 4.42734C72.0929 4.42734 75.7701 18.6311 75.7701 24.7531L75.7701 33.0038L108 33.0038L108 23.1558C108 7.98541 95.8431 -9.45705e-07 73.7897 -3.01104e-06L54 -3.52704e-05Z" fill="black"/>
<path d="M54 65L54 60.5727L60.5016 60.5727C72.0929 60.5727 75.7701 46.3689 75.7701 40.2469L75.7701 31.9962L108 31.9962L108 41.8442C108 57.0146 95.8431 65 73.7897 65L54 65Z" fill="black"/>
<path d="M54 -3.52704e-05L54 4.42731L47.4984 4.42734C35.9071 4.42734 32.2299 18.6311 32.2299 24.7531L32.2299 33.0038L2.90515e-06 33.0038L2.05001e-06 23.1558C3.49929e-07 7.98541 12.1569 -9.45705e-07 34.2103 -3.01104e-06L54 -3.52704e-05Z" fill="#FDFEFF"/>
<path d="M54 65L54 60.5727L47.4984 60.5727C35.9071 60.5727 32.2299 46.3689 32.2299 40.2469L32.2299 31.9962L-2.86585e-06 31.9962L-1.16209e-07 41.8442C3.34754e-06 57.0146 12.1569 65 34.2103 65L54 65Z" fill="#FDFEFF"/>
</g>
<defs>
<clipPath id="clip0_305_4134">
<rect width="107" height="65" fill="white"/>
</clipPath>
</defs>
</svg>
