<svg width="107" height="65" viewBox="0 0 107 65" fill="none" xmlns="http://www.w3.org/2000/svg">
<g clip-path="url(#clip0_306_4180)">
<path d="M53 0V4.42735L59.5016 4.42738C71.093 4.42738 74.7701 18.6312 74.7701 24.7531V33.0038L107 33.0038V23.1558C107 7.98545 94.8431 3.43247e-05 72.7897 3.22594e-05L53 0Z" fill="black"/>
<path d="M53 65L53 60.5727L59.5016 60.5727C71.0929 60.5727 74.7701 46.3689 74.7701 40.247V31.9962L107 31.9962L107 41.8442C107 57.0146 94.8431 65 72.7897 65L53 65Z" fill="black"/>
<path d="M54 0V4.42735L47.4984 4.42738C35.9071 4.42738 32.2299 18.6312 32.2299 24.7531V33.0038L5.77101e-06 33.0038L4.91587e-06 23.1558C3.21578e-06 7.98545 12.1569 3.43247e-05 34.2103 3.22594e-05L54 0Z" fill="black"/>
<path d="M54 65V60.5727L47.4984 60.5727C35.9071 60.5727 32.2299 46.3689 32.2299 40.247L32.2299 31.9962L0 31.9962L2.74965e-06 41.8442C6.2134e-06 57.0146 12.1569 65 34.2103 65L54 65Z" fill="black"/>
<path d="M65.38 17H41.7C39.6598 17 38 18.6598 38 20.7V44.38C38 46.4202 39.6598 48.08 41.7 48.08H65.38C67.4202 48.08 69.08 46.4202 69.08 44.38V20.7C69.08 18.6598 67.4202 17 65.38 17ZM62.4244 30.559C62.2565 30.5746 62.0863 30.5849 61.9138 30.5849C59.9728 30.5849 58.2671 29.5867 57.2748 28.0778C57.2748 32.0361 57.2748 36.5397 57.2748 36.6152C57.2748 40.0998 54.4495 42.9252 50.9648 42.9252C47.4801 42.9252 44.6548 40.0998 44.6548 36.6152C44.6548 33.1305 47.4801 30.3052 50.9648 30.3052C51.0965 30.3052 51.2253 30.317 51.3548 30.3252V33.4347C51.2253 33.4191 51.098 33.3954 50.9648 33.3954C49.1858 33.3954 47.7443 34.837 47.7443 36.6159C47.7443 38.3949 49.1858 39.8364 50.9648 39.8364C52.7438 39.8364 54.3148 38.4348 54.3148 36.6559C54.3148 36.5856 54.3459 22.1563 54.3459 22.1563H57.3177C57.5974 24.8137 59.7427 26.9108 62.4244 27.1032V30.559Z" fill="#F74828"/>
</g>
<defs>
<clipPath id="clip0_306_4180">
<rect width="107" height="65" fill="white"/>
</clipPath>
</defs>
</svg>
