<svg width="107" height="65" viewBox="0 0 107 65" fill="none" xmlns="http://www.w3.org/2000/svg">
<g clip-path="url(#clip0_306_4191)">
<path d="M53 0V4.42735L59.5016 4.42738C71.093 4.42738 74.7701 18.6312 74.7701 24.7531V33.0038L107 33.0038V23.1558C107 7.98545 94.8431 3.43247e-05 72.7897 3.22594e-05L53 0Z" fill="black"/>
<path d="M53 65L53 60.5727L59.5016 60.5727C71.0929 60.5727 74.7701 46.3689 74.7701 40.247V31.9962L107 31.9962L107 41.8442C107 57.0146 94.8431 65 72.7897 65L53 65Z" fill="black"/>
<path d="M54 0V4.42735L47.4984 4.42738C35.9071 4.42738 32.2299 18.6312 32.2299 24.7531V33.0038L5.77101e-06 33.0038L4.91587e-06 23.1558C3.21578e-06 7.98545 12.1569 3.43247e-05 34.2103 3.22594e-05L54 0Z" fill="black"/>
<path d="M54 65V60.5727L47.4984 60.5727C35.9071 60.5727 32.2299 46.3689 32.2299 40.247L32.2299 31.9962L0 31.9962L2.74965e-06 41.8442C6.2134e-06 57.0146 12.1569 65 34.2103 65L54 65Z" fill="black"/>
<path d="M40.8 16L38 21.6V44H45V48.2H50.6L54.8 44H60.4L68.8 35.6V16H40.8ZM43.6 18.8H66V34.2L61.8 38.4H53.4L49.2 42.6V38.4H43.6V18.8ZM50.6 23V32.8H53.4V23H50.6ZM56.2 23V32.8H59V23H56.2Z" fill="#F74828"/>
</g>
<defs>
<clipPath id="clip0_306_4191">
<rect width="107" height="65" fill="white"/>
</clipPath>
</defs>
</svg>
