<svg width="107" height="65" viewBox="0 0 107 65" fill="none" xmlns="http://www.w3.org/2000/svg">
<g clip-path="url(#clip0_306_4176)">
<path d="M53 0V4.42735L59.5016 4.42738C71.093 4.42738 74.7701 18.6312 74.7701 24.7531V33.0038L107 33.0038V23.1558C107 7.98545 94.8431 3.43247e-05 72.7897 3.22594e-05L53 0Z" fill="black"/>
<path d="M53 65L53 60.5727L59.5016 60.5727C71.0929 60.5727 74.7701 46.3689 74.7701 40.247V31.9962L107 31.9962L107 41.8442C107 57.0146 94.8431 65 72.7897 65L53 65Z" fill="black"/>
<path d="M54 0V4.42735L47.4984 4.42738C35.9071 4.42738 32.2299 18.6312 32.2299 24.7531V33.0038L5.77101e-06 33.0038L4.91587e-06 23.1558C3.21578e-06 7.98545 12.1569 3.43247e-05 34.2103 3.22594e-05L54 0Z" fill="black"/>
<path d="M54 65V60.5727L47.4984 60.5727C35.9071 60.5727 32.2299 46.3689 32.2299 40.247L32.2299 31.9962L0 31.9962L2.74965e-06 41.8442C6.2134e-06 57.0146 12.1569 65 34.2103 65L54 65Z" fill="black"/>
<path d="M70.1947 23.62C69.86 21.7727 68.2653 20.4273 66.4147 20.0073C63.6453 19.42 58.52 19 52.9747 19C47.4327 19 42.2253 19.42 39.4527 20.0073C37.6053 20.4273 36.0073 21.6873 35.6727 23.62C35.3347 25.72 35 28.66 35 32.44C35 36.22 35.3347 39.16 35.7547 41.26C36.0927 43.1073 37.6873 44.4527 39.5347 44.8727C42.4747 45.46 47.5147 45.88 53.06 45.88C58.6053 45.88 63.6453 45.46 66.5853 44.8727C68.4327 44.4527 70.0273 43.1927 70.3653 41.26C70.7 39.16 71.12 36.1347 71.2053 32.44C71.0347 28.66 70.6147 25.72 70.1947 23.62ZM48.44 38.32V26.56L58.6873 32.44L48.44 38.32Z" fill="#F74828"/>
</g>
<defs>
<clipPath id="clip0_306_4176">
<rect width="107" height="65" fill="white"/>
</clipPath>
</defs>
</svg>
