<svg width="111" height="41" viewBox="0 0 111 41" fill="none" xmlns="http://www.w3.org/2000/svg">
<g style="mix-blend-mode:difference">
<path d="M92.0752 37.5225L92.0752 35.0057L21.3361 35.0057C16.1293 35.0057 14.4775 26.9314 14.4775 23.4514L14.4775 18.7612L-0.000144584 18.7612L-0.000144696 24.3593C-0.000144868 32.9831 5.46072 37.5225 15.3671 37.5225L92.0752 37.5225Z" fill="#FDFEFF"/>
<path d="M18.9233 0L18.9233 2.51676L89.6624 2.51676C94.8692 2.51676 96.521 10.591 96.521 14.0711L96.521 18.7613L110.999 18.7613L110.999 13.1631C110.999 4.53938 105.538 5.81058e-06 95.6314 5.146e-06L18.9233 0Z" fill="#FDFEFF"/>
<path d="M18.9233 37.5225L18.9233 35.0057L89.6624 35.0057C94.8692 35.0057 96.521 26.9314 96.521 23.4514L96.521 18.7612L110.999 18.7612L110.999 24.3593C110.999 32.9831 105.538 37.5225 95.6314 37.5225L18.9233 37.5225Z" fill="#FDFEFF"/>
<path d="M92.0752 0L92.0752 2.51676L21.3361 2.51675C16.1293 2.51675 14.4775 10.591 14.4775 14.0711L14.4775 18.7613L-0.000147056 18.7613L-0.00014643 13.1631C-0.000145466 4.53937 5.46072 -4.41567e-06 15.3671 -3.91063e-06L92.0752 0Z" fill="#FDFEFF"/>
</g>
<g style="mix-blend-mode:difference" filter="url(#filter0_d_302_4046)">
<path d="M43.3518 22.74C44.2918 21.78 46.0718 19.94 47.7718 18.14C50.1118 15.66 48.2918 11.7 44.8318 11.7C40.6118 11.7 39.2918 14.86 39.2918 16.9H41.9518C41.9518 15.92 42.3318 14.28 44.0718 14.28C45.6518 14.28 47.0518 15.9 43.9518 18.78C41.0518 21.44 39.5118 23.1 39.0318 23.58V26H48.9118V23.44H43.6318C43.0518 23.44 42.3918 23.8 41.8518 24.02L41.6718 23.6C42.2118 23.38 42.9318 23.16 43.3518 22.74ZM50.4468 19C50.4468 23.16 52.4268 26.32 56.3068 26.32C60.1868 26.32 62.1468 23.16 62.1468 19C62.1468 14.84 60.1868 11.7 56.3068 11.7C52.4268 11.7 50.4468 14.84 50.4468 19ZM53.1468 19.02C53.1468 16.54 54.0468 14.3 56.3068 14.3C58.5468 14.3 59.4468 16.54 59.4468 19.02C59.4468 21.48 58.5468 23.74 56.3068 23.74C54.0468 23.74 53.1468 21.48 53.1468 19.02ZM64.957 16C64.957 16.8268 65.0286 17.4453 65.1719 17.8555C65.3216 18.2591 65.5592 18.4609 65.8848 18.4609C66.5098 18.4609 66.8223 17.6406 66.8223 16C66.8223 14.3724 66.5098 13.5586 65.8848 13.5586C65.5592 13.5586 65.3216 13.7604 65.1719 14.1641C65.0286 14.5612 64.957 15.1732 64.957 16ZM69.2832 15.9805C69.2832 17.4779 68.9935 18.6042 68.4141 19.3594C67.8346 20.1081 66.985 20.4824 65.8652 20.4824C64.791 20.4824 63.9609 20.0983 63.375 19.3301C62.7891 18.5553 62.4961 17.4388 62.4961 15.9805C62.4961 13.0052 63.6191 11.5176 65.8652 11.5176C66.9655 11.5176 67.8086 11.9049 68.3945 12.6797C68.987 13.4479 69.2832 14.5482 69.2832 15.9805ZM76.002 11.7227L68.082 26H65.7383L73.6582 11.7227H76.002ZM74.957 21.7031C74.957 22.5299 75.0286 23.1484 75.1719 23.5586C75.3216 23.9622 75.5592 24.1641 75.8848 24.1641C76.5098 24.1641 76.8223 23.3438 76.8223 21.7031C76.8223 20.0755 76.5098 19.2617 75.8848 19.2617C75.5592 19.2617 75.3216 19.4635 75.1719 19.8672C75.0286 20.2643 74.957 20.8763 74.957 21.7031ZM79.2832 21.6836C79.2832 23.1745 78.9935 24.2975 78.4141 25.0527C77.8346 25.8014 76.985 26.1758 75.8652 26.1758C74.791 26.1758 73.9609 25.7917 73.375 25.0234C72.7891 24.2487 72.4961 23.1354 72.4961 21.6836C72.4961 18.7083 73.6191 17.2207 75.8652 17.2207C76.9655 17.2207 77.8086 17.6081 78.3945 18.3828C78.987 19.151 79.2832 20.2513 79.2832 21.6836Z" fill="#FDFEFF"/>
</g>
<defs>
<filter id="filter0_d_302_4046" x="34.0317" y="10.5176" width="50.2515" height="24.8025" filterUnits="userSpaceOnUse" color-interpolation-filters="sRGB">
<feFlood flood-opacity="0" result="BackgroundImageFix"/>
<feColorMatrix in="SourceAlpha" type="matrix" values="0 0 0 0 0 0 0 0 0 0 0 0 0 0 0 0 0 0 127 0" result="hardAlpha"/>
<feOffset dy="4"/>
<feGaussianBlur stdDeviation="2.5"/>
<feComposite in2="hardAlpha" operator="out"/>
<feColorMatrix type="matrix" values="0 0 0 0 0 0 0 0 0 0 0 0 0 0 0 0 0 0 0.15 0"/>
<feBlend mode="normal" in2="BackgroundImageFix" result="effect1_dropShadow_302_4046"/>
<feBlend mode="normal" in="SourceGraphic" in2="effect1_dropShadow_302_4046" result="shape"/>
</filter>
</defs>
</svg>
