<svg width="111" height="41" viewBox="0 0 111 41" fill="none" xmlns="http://www.w3.org/2000/svg">
<g style="mix-blend-mode:difference">
<path d="M92.0752 37.5225L92.0752 35.0057L21.3361 35.0057C16.1293 35.0057 14.4775 26.9314 14.4775 23.4514L14.4775 18.7612L-0.000144584 18.7612L-0.000144696 24.3593C-0.000144868 32.9831 5.46072 37.5225 15.3671 37.5225L92.0752 37.5225Z" fill="#FDFEFF"/>
<path d="M18.9233 0L18.9233 2.51676L89.6624 2.51676C94.8692 2.51676 96.521 10.591 96.521 14.0711L96.521 18.7613L110.999 18.7613L110.999 13.1631C110.999 4.53938 105.538 5.81058e-06 95.6314 5.146e-06L18.9233 0Z" fill="#FDFEFF"/>
<path d="M18.9233 37.5225L18.9233 35.0057L89.6624 35.0057C94.8692 35.0057 96.521 26.9314 96.521 23.4514L96.521 18.7612L110.999 18.7612L110.999 24.3593C110.999 32.9831 105.538 37.5225 95.6314 37.5225L18.9233 37.5225Z" fill="#FDFEFF"/>
<path d="M92.0752 0L92.0752 2.51676L21.3361 2.51675C16.1293 2.51675 14.4775 10.591 14.4775 14.0711L14.4775 18.7613L-0.000147056 18.7613L-0.00014643 13.1631C-0.000145466 4.53937 5.46072 -4.41567e-06 15.3671 -3.91063e-06L92.0752 0Z" fill="#FDFEFF"/>
</g>
<g style="mix-blend-mode:difference" filter="url(#filter0_d_302_4047)">
<path d="M40.065 17.7C39.585 18.04 39.425 18.84 39.165 19.38L38.765 19.18C39.025 18.66 39.385 18 39.525 17.44C39.925 15.44 41.305 14.3 43.065 14.3C44.105 14.3 45.005 15 45.245 15.7H47.905C47.645 14 46.325 12 42.865 12C39.205 12 36.565 14.58 36.565 19.42C36.565 23.52 38.225 26.3 42.685 26.3C45.945 26.3 48.045 23.86 48.045 21.22C48.045 18.66 46.065 16.62 43.565 16.62C42.025 16.62 40.825 17.08 40.065 17.7ZM39.445 21.32C39.445 19.96 40.685 18.92 42.665 18.92C44.645 18.92 45.485 19.82 45.485 21.32C45.485 22.82 44.445 23.82 42.465 23.82C40.485 23.82 39.445 22.68 39.445 21.32ZM49.4136 19C49.4136 23.16 51.3936 26.32 55.2736 26.32C59.1536 26.32 61.1136 23.16 61.1136 19C61.1136 14.84 59.1536 11.7 55.2736 11.7C51.3936 11.7 49.4136 14.84 49.4136 19ZM52.1136 19.02C52.1136 16.54 53.0136 14.3 55.2736 14.3C57.5136 14.3 58.4136 16.54 58.4136 19.02C58.4136 21.48 57.5136 23.74 55.2736 23.74C53.0136 23.74 52.1136 21.48 52.1136 19.02ZM63.9238 16C63.9238 16.8268 63.9954 17.4453 64.1387 17.8555C64.2884 18.2591 64.526 18.4609 64.8516 18.4609C65.4766 18.4609 65.7891 17.6406 65.7891 16C65.7891 14.3724 65.4766 13.5586 64.8516 13.5586C64.526 13.5586 64.2884 13.7604 64.1387 14.1641C63.9954 14.5612 63.9238 15.1732 63.9238 16ZM68.25 15.9805C68.25 17.4779 67.9603 18.6042 67.3809 19.3594C66.8014 20.1081 65.9518 20.4824 64.832 20.4824C63.7578 20.4824 62.9277 20.0983 62.3418 19.3301C61.7559 18.5553 61.4629 17.4388 61.4629 15.9805C61.4629 13.0052 62.5859 11.5176 64.832 11.5176C65.9323 11.5176 66.7754 11.9049 67.3613 12.6797C67.9538 13.4479 68.25 14.5482 68.25 15.9805ZM74.9688 11.7227L67.0488 26H64.7051L72.625 11.7227H74.9688ZM73.9238 21.7031C73.9238 22.5299 73.9954 23.1484 74.1387 23.5586C74.2884 23.9622 74.526 24.1641 74.8516 24.1641C75.4766 24.1641 75.7891 23.3438 75.7891 21.7031C75.7891 20.0755 75.4766 19.2617 74.8516 19.2617C74.526 19.2617 74.2884 19.4635 74.1387 19.8672C73.9954 20.2643 73.9238 20.8763 73.9238 21.7031ZM78.25 21.6836C78.25 23.1745 77.9603 24.2975 77.3809 25.0527C76.8014 25.8014 75.9518 26.1758 74.832 26.1758C73.7578 26.1758 72.9277 25.7917 72.3418 25.0234C71.7559 24.2487 71.4629 23.1354 71.4629 21.6836C71.4629 18.7083 72.5859 17.2207 74.832 17.2207C75.9323 17.2207 76.7754 17.6081 77.3613 18.3828C77.9538 19.151 78.25 20.2513 78.25 21.6836Z" fill="#FDFEFF"/>
</g>
<defs>
<filter id="filter0_d_302_4047" x="31.5649" y="10.5176" width="51.6851" height="24.8025" filterUnits="userSpaceOnUse" color-interpolation-filters="sRGB">
<feFlood flood-opacity="0" result="BackgroundImageFix"/>
<feColorMatrix in="SourceAlpha" type="matrix" values="0 0 0 0 0 0 0 0 0 0 0 0 0 0 0 0 0 0 127 0" result="hardAlpha"/>
<feOffset dy="4"/>
<feGaussianBlur stdDeviation="2.5"/>
<feComposite in2="hardAlpha" operator="out"/>
<feColorMatrix type="matrix" values="0 0 0 0 0 0 0 0 0 0 0 0 0 0 0 0 0 0 0.15 0"/>
<feBlend mode="normal" in2="BackgroundImageFix" result="effect1_dropShadow_302_4047"/>
<feBlend mode="normal" in="SourceGraphic" in2="effect1_dropShadow_302_4047" result="shape"/>
</filter>
</defs>
</svg>
