<svg width="111" height="40" viewBox="0 0 111 40" fill="none" xmlns="http://www.w3.org/2000/svg">
<g style="mix-blend-mode:difference">
<path d="M92.0752 37.5225L92.0752 35.0057L21.3361 35.0057C16.1293 35.0057 14.4775 26.9314 14.4775 23.4514L14.4775 18.7612L-0.000144584 18.7612L-0.000144696 24.3593C-0.000144868 32.9831 5.46072 37.5225 15.3671 37.5225L92.0752 37.5225Z" fill="#F74828"/>
<path d="M18.9233 0L18.9233 2.51676L89.6624 2.51676C94.8692 2.51676 96.521 10.591 96.521 14.0711L96.521 18.7613L110.999 18.7613L110.999 13.1631C110.999 4.53938 105.538 5.81058e-06 95.6314 5.146e-06L18.9233 0Z" fill="#F74828"/>
<path d="M18.9233 37.5225L18.9233 35.0057L89.6624 35.0057C94.8692 35.0057 96.521 26.9314 96.521 23.4514L96.521 18.7612L110.999 18.7612L110.999 24.3593C110.999 32.9831 105.538 37.5225 95.6314 37.5225L18.9233 37.5225Z" fill="#F74828"/>
<path d="M92.0752 0L92.0752 2.51676L21.3361 2.51675C16.1293 2.51675 14.4775 10.591 14.4775 14.0711L14.4775 18.7613L-0.000147056 18.7613L-0.00014643 13.1631C-0.000145466 4.53937 5.46072 -4.41567e-06 15.3671 -3.91063e-06L92.0752 0Z" fill="#F74828"/>
</g>
<g style="mix-blend-mode:difference" filter="url(#filter0_d_302_4045)">
<path d="M36.5762 19.64V21.78H44.1162V25H46.7362V21.76H48.6962V19.26H46.7362V11H43.1562V11.02L36.5762 19.64ZM43.4962 14.88C43.8562 14.42 44.0362 13.68 44.2162 13.12L44.6562 13.28C44.4562 13.84 44.1162 14.52 44.1162 15.1V19.26L40.8962 19.28C40.3162 19.28 39.6562 19.64 39.1362 19.9L38.9362 19.5C39.4762 19.24 40.1762 18.98 40.5362 18.52L43.4962 14.88ZM49.4624 18C49.4624 22.16 51.4424 25.32 55.3224 25.32C59.2024 25.32 61.1624 22.16 61.1624 18C61.1624 13.84 59.2024 10.7 55.3224 10.7C51.4424 10.7 49.4624 13.84 49.4624 18ZM52.1624 18.02C52.1624 15.54 53.0624 13.3 55.3224 13.3C57.5624 13.3 58.4624 15.54 58.4624 18.02C58.4624 20.48 57.5624 22.74 55.3224 22.74C53.0624 22.74 52.1624 20.48 52.1624 18.02ZM63.9727 15C63.9727 15.8268 64.0443 16.4453 64.1875 16.8555C64.3372 17.2591 64.5749 17.4609 64.9004 17.4609C65.5254 17.4609 65.8379 16.6406 65.8379 15C65.8379 13.3724 65.5254 12.5586 64.9004 12.5586C64.5749 12.5586 64.3372 12.7604 64.1875 13.1641C64.0443 13.5612 63.9727 14.1732 63.9727 15ZM68.2988 14.9805C68.2988 16.4779 68.0091 17.6042 67.4297 18.3594C66.8503 19.1081 66.0007 19.4824 64.8809 19.4824C63.8066 19.4824 62.9766 19.0983 62.3906 18.3301C61.8047 17.5553 61.5117 16.4388 61.5117 14.9805C61.5117 12.0052 62.6348 10.5176 64.8809 10.5176C65.9811 10.5176 66.8242 10.9049 67.4102 11.6797C68.0026 12.4479 68.2988 13.5482 68.2988 14.9805ZM75.0176 10.7227L67.0977 25H64.7539L72.6738 10.7227H75.0176ZM73.9727 20.7031C73.9727 21.5299 74.0443 22.1484 74.1875 22.5586C74.3372 22.9622 74.5749 23.1641 74.9004 23.1641C75.5254 23.1641 75.8379 22.3438 75.8379 20.7031C75.8379 19.0755 75.5254 18.2617 74.9004 18.2617C74.5749 18.2617 74.3372 18.4635 74.1875 18.8672C74.0443 19.2643 73.9727 19.8763 73.9727 20.7031ZM78.2988 20.6836C78.2988 22.1745 78.0091 23.2975 77.4297 24.0527C76.8503 24.8014 76.0007 25.1758 74.8809 25.1758C73.8066 25.1758 72.9766 24.7917 72.3906 24.0234C71.8047 23.2487 71.5117 22.1354 71.5117 20.6836C71.5117 17.7083 72.6348 16.2207 74.8809 16.2207C75.9811 16.2207 76.8242 16.6081 77.4102 17.3828C78.0026 18.151 78.2988 19.2513 78.2988 20.6836Z" fill="#F74828"/>
</g>
<defs>
<filter id="filter0_d_302_4045" x="31.5762" y="9.51758" width="51.7227" height="24.8025" filterUnits="userSpaceOnUse" color-interpolation-filters="sRGB">
<feFlood flood-opacity="0" result="BackgroundImageFix"/>
<feColorMatrix in="SourceAlpha" type="matrix" values="0 0 0 0 0 0 0 0 0 0 0 0 0 0 0 0 0 0 127 0" result="hardAlpha"/>
<feOffset dy="4"/>
<feGaussianBlur stdDeviation="2.5"/>
<feComposite in2="hardAlpha" operator="out"/>
<feColorMatrix type="matrix" values="0 0 0 0 0 0 0 0 0 0 0 0 0 0 0 0 0 0 0.15 0"/>
<feBlend mode="normal" in2="BackgroundImageFix" result="effect1_dropShadow_302_4045"/>
<feBlend mode="normal" in="SourceGraphic" in2="effect1_dropShadow_302_4045" result="shape"/>
</filter>
</defs>
</svg>
