<svg width="101" height="59" viewBox="0 0 101 59" fill="none" xmlns="http://www.w3.org/2000/svg">
<g style="mix-blend-mode:difference">
<path d="M63.422 19.2169C60.328 16.7291 55.4335 16.3082 55.2255 16.2903C54.8989 16.2627 54.5885 16.4479 54.4552 16.7469C54.4455 16.7664 54.3382 17.0118 54.2196 17.3937C56.2655 17.7382 58.7794 18.4337 61.0544 19.8458C61.4184 20.0717 61.5305 20.5511 61.3046 20.9167C61.1584 21.1539 60.9033 21.2839 60.6433 21.2839C60.5035 21.2839 60.3621 21.2466 60.2337 21.1669C56.324 18.7424 51.4393 18.6206 50.5 18.6206C49.5607 18.6206 44.6744 18.7424 40.7679 21.1669C40.4023 21.3944 39.9245 21.2807 39.697 20.9167C39.4695 20.5511 39.5833 20.0733 39.9472 19.8458C42.2222 18.4353 44.7345 17.7382 46.782 17.3937C46.6617 17.0102 46.5545 16.7664 46.5464 16.7469C46.4115 16.4479 46.1027 16.2594 45.7745 16.2919C45.5681 16.3082 40.6736 16.7291 37.5374 19.2527C35.8994 20.7656 32.625 29.6186 32.625 37.2723C32.625 37.4072 32.6607 37.5404 32.7274 37.6574C34.9878 41.6273 41.153 42.6673 42.5586 42.7128C42.5667 42.7128 42.5749 42.7128 42.583 42.7128C42.8316 42.7128 43.0656 42.5942 43.2119 42.3927L44.6338 40.4394C40.8004 39.4482 38.8422 37.7663 38.7285 37.6672C38.4068 37.3828 38.3759 36.8921 38.6603 36.5703C38.9446 36.2486 39.4338 36.2177 39.7555 36.5004C39.8026 36.5427 43.4085 39.6026 50.5 39.6026C57.6045 39.6026 61.2104 36.5297 61.2461 36.4988C61.5679 36.2193 62.0586 36.2486 62.3414 36.5719C62.6241 36.8937 62.5933 37.3828 62.2731 37.6656C62.1594 37.7663 60.2013 39.4466 56.3679 40.4378L57.7897 42.3911C57.936 42.5926 58.17 42.7112 58.4186 42.7112C58.4267 42.7112 58.4349 42.7112 58.443 42.7112C59.8486 42.6673 66.0139 41.6273 68.2743 37.6558C68.3392 37.5388 68.375 37.4072 68.375 37.2723C68.375 29.6186 65.1006 20.7656 63.422 19.2169ZM45.4479 34.1637C43.9464 34.1637 42.7276 32.7711 42.7276 31.0551C42.7276 29.3391 43.9447 27.9464 45.4479 27.9464C46.951 27.9464 48.1681 29.3391 48.1681 31.0551C48.1681 32.7711 46.951 34.1637 45.4479 34.1637ZM55.5521 34.1637C54.0506 34.1637 52.8319 32.7711 52.8319 31.0551C52.8319 29.3391 54.049 27.9464 55.5521 27.9464C57.0536 27.9464 58.2724 29.3391 58.2724 31.0551C58.2724 32.7711 57.0536 34.1637 55.5521 34.1637Z" fill="#F74828"/>
</g>
<g style="mix-blend-mode:difference">
<path d="M50.665 58.4246L50.665 54.5058L42.6399 54.5058C32.2342 54.5058 28.9331 41.9338 28.9331 36.5152L28.9331 29.2123L-0.000113693 29.2123L-0.000113916 37.9289C-0.00011426 51.3565 10.9133 58.4246 30.711 58.4246L50.665 58.4246Z" fill="#FDFEFF"/>
<path d="M50.7295 5.29392e-06L50.7295 3.91872L42.6401 3.91872C32.2344 3.91872 28.9334 16.4908 28.9334 21.9094L28.9334 29.2123L0.000144581 29.2123L0.000145832 20.4956C0.000147759 7.06803 10.9136 -1.58149e-06 30.7113 -7.95126e-07L50.7295 5.29392e-06Z" fill="#FDFEFF"/>
<path d="M50.2695 58.4246L50.2695 54.5058L58.2947 54.5058C68.7004 54.5058 72.0014 41.9338 72.0014 36.5152L72.0014 29.2123L100.935 29.2123L100.935 37.9289C100.935 51.3565 90.0213 58.4246 70.2236 58.4246L50.2695 58.4246Z" fill="#FDFEFF"/>
<path d="M50.2051 5.29392e-06L50.2051 3.91872L58.2944 3.91872C68.7001 3.91872 72.0012 16.4908 72.0012 21.9094L72.0012 29.2123L100.934 29.2123L100.934 20.4956C100.934 7.06803 90.021 -1.58149e-06 70.2233 -7.95126e-07L50.2051 5.29392e-06Z" fill="#FDFEFF"/>
</g>
</svg>
