<svg width="111" height="40" viewBox="0 0 111 40" fill="none" xmlns="http://www.w3.org/2000/svg">
<g style="mix-blend-mode:difference">
<path d="M92.0752 37.5225L92.0752 35.0057L21.3361 35.0057C16.1293 35.0057 14.4775 26.9314 14.4775 23.4514L14.4775 18.7612L-0.000144584 18.7612L-0.000144696 24.3593C-0.000144868 32.9831 5.46072 37.5225 15.3671 37.5225L92.0752 37.5225Z" fill="#FDFEFF"/>
<path d="M18.9233 0L18.9233 2.51676L89.6624 2.51676C94.8692 2.51676 96.521 10.591 96.521 14.0711L96.521 18.7613L110.999 18.7613L110.999 13.1631C110.999 4.53938 105.538 5.81058e-06 95.6314 5.146e-06L18.9233 0Z" fill="#FDFEFF"/>
<path d="M18.9233 37.5225L18.9233 35.0057L89.6624 35.0057C94.8692 35.0057 96.521 26.9314 96.521 23.4514L96.521 18.7612L110.999 18.7612L110.999 24.3593C110.999 32.9831 105.538 37.5225 95.6314 37.5225L18.9233 37.5225Z" fill="#FDFEFF"/>
<path d="M92.0752 0L92.0752 2.51676L21.3361 2.51675C16.1293 2.51675 14.4775 10.591 14.4775 14.0711L14.4775 18.7613L-0.000147056 18.7613L-0.00014643 13.1631C-0.000145466 4.53937 5.46072 -4.41567e-06 15.3671 -3.91063e-06L92.0752 0Z" fill="#FDFEFF"/>
</g>
<g style="mix-blend-mode:difference" filter="url(#filter0_d_302_4048)">
<path d="M36.8275 15.22C37.3475 14.96 37.6275 14.22 37.9075 13.72L38.3075 13.92C38.0275 14.44 37.6475 15.06 37.6475 15.66V25H40.2675V11H37.0875C37.0875 12.34 35.9075 13.4 34.4475 13.4V15.8C35.1875 15.8 36.0875 15.58 36.8275 15.22ZM52.2495 15.1C52.2495 14.38 51.9295 13.44 51.8095 12.7L52.2495 12.64C52.3895 13.36 52.4095 14.34 52.6495 15.04L56.2895 25H59.3895L63.0095 15.04C63.2495 14.34 63.2695 13.36 63.4095 12.62L63.8495 12.7C63.7295 13.44 63.4095 14.36 63.4095 15.1V25H66.0295V11H62.0495L58.2695 20.62C58.0095 21.32 58.0695 22.26 58.0695 23H57.6295C57.6295 22.26 57.6695 21.32 57.4095 20.62L53.6295 11H49.6295V25H52.2495V15.1ZM67.8363 18C67.8363 22.14 70.8763 25.32 74.7363 25.32C78.5963 25.32 81.6363 21.94 81.6363 18C81.6363 14.06 78.5963 10.7 74.7363 10.7C70.8763 10.7 67.8363 13.86 67.8363 18ZM70.4763 18C70.4763 15.68 71.8763 13.24 74.7363 13.24C77.5963 13.24 79.0163 15.68 79.0163 18C79.0163 20.32 77.5963 22.78 74.7363 22.78C71.8763 22.78 70.4763 20.32 70.4763 18Z" fill="#FDFEFF"/>
</g>
<defs>
<filter id="filter0_d_302_4048" x="29.4473" y="9.69995" width="57.189" height="24.6201" filterUnits="userSpaceOnUse" color-interpolation-filters="sRGB">
<feFlood flood-opacity="0" result="BackgroundImageFix"/>
<feColorMatrix in="SourceAlpha" type="matrix" values="0 0 0 0 0 0 0 0 0 0 0 0 0 0 0 0 0 0 127 0" result="hardAlpha"/>
<feOffset dy="4"/>
<feGaussianBlur stdDeviation="2.5"/>
<feComposite in2="hardAlpha" operator="out"/>
<feColorMatrix type="matrix" values="0 0 0 0 0 0 0 0 0 0 0 0 0 0 0 0 0 0 0.15 0"/>
<feBlend mode="normal" in2="BackgroundImageFix" result="effect1_dropShadow_302_4048"/>
<feBlend mode="normal" in="SourceGraphic" in2="effect1_dropShadow_302_4048" result="shape"/>
</filter>
</defs>
</svg>
