<svg width="111" height="40" viewBox="0 0 111 40" fill="none" xmlns="http://www.w3.org/2000/svg">
<g style="mix-blend-mode:difference">
<path d="M92.0752 37.5225L92.0752 35.0057L21.3361 35.0057C16.1293 35.0057 14.4775 26.9314 14.4775 23.4514L14.4775 18.7612L-0.000144584 18.7612L-0.000144696 24.3593C-0.000144868 32.9831 5.46072 37.5225 15.3671 37.5225L92.0752 37.5225Z" fill="#FDFEFF"/>
<path d="M18.9233 0L18.9233 2.51676L89.6624 2.51676C94.8692 2.51676 96.521 10.591 96.521 14.0711L96.521 18.7613L110.999 18.7613L110.999 13.1631C110.999 4.53938 105.538 5.81058e-06 95.6314 5.146e-06L18.9233 0Z" fill="#FDFEFF"/>
<path d="M18.9233 37.5225L18.9233 35.0057L89.6624 35.0057C94.8692 35.0057 96.521 26.9314 96.521 23.4514L96.521 18.7612L110.999 18.7612L110.999 24.3593C110.999 32.9831 105.538 37.5225 95.6314 37.5225L18.9233 37.5225Z" fill="#FDFEFF"/>
<path d="M92.0752 0L92.0752 2.51676L21.3361 2.51675C16.1293 2.51675 14.4775 10.591 14.4775 14.0711L14.4775 18.7613L-0.000147056 18.7613L-0.00014643 13.1631C-0.000145466 4.53937 5.46072 -4.41567e-06 15.3671 -3.91063e-06L92.0752 0Z" fill="#FDFEFF"/>
</g>
<g style="mix-blend-mode:difference" filter="url(#filter0_d_302_4049)">
<path d="M30.89 15.22C31.41 14.96 31.69 14.22 31.97 13.72L32.37 13.92C32.09 14.44 31.71 15.06 31.71 15.66V25H34.33V11H31.15C31.15 12.34 29.97 13.4 28.51 13.4V15.8C29.25 15.8 30.15 15.58 30.89 15.22ZM42.592 21.74C43.532 20.78 45.312 18.94 47.012 17.14C49.352 14.66 47.532 10.7 44.072 10.7C39.852 10.7 38.532 13.86 38.532 15.9H41.192C41.192 14.92 41.572 13.28 43.312 13.28C44.892 13.28 46.292 14.9 43.192 17.78C40.292 20.44 38.752 22.1 38.272 22.58V25H48.152V22.44H42.872C42.292 22.44 41.632 22.8 41.092 23.02L40.912 22.6C41.452 22.38 42.172 22.16 42.592 21.74ZM58.187 15.1C58.187 14.38 57.867 13.44 57.747 12.7L58.187 12.64C58.327 13.36 58.347 14.34 58.587 15.04L62.227 25H65.327L68.947 15.04C69.187 14.34 69.207 13.36 69.347 12.62L69.787 12.7C69.667 13.44 69.347 14.36 69.347 15.1V25H71.967V11H67.987L64.207 20.62C63.947 21.32 64.007 22.26 64.007 23H63.567C63.567 22.26 63.607 21.32 63.347 20.62L59.567 11H55.567V25H58.187V15.1ZM73.7738 18C73.7738 22.14 76.8138 25.32 80.6738 25.32C84.5338 25.32 87.5738 21.94 87.5738 18C87.5738 14.06 84.5338 10.7 80.6738 10.7C76.8138 10.7 73.7738 13.86 73.7738 18ZM76.4138 18C76.4138 15.68 77.8138 13.24 80.6738 13.24C83.5338 13.24 84.9538 15.68 84.9538 18C84.9538 20.32 83.5338 22.78 80.6738 22.78C77.8138 22.78 76.4138 20.32 76.4138 18Z" fill="#FDFEFF"/>
</g>
<defs>
<filter id="filter0_d_302_4049" x="23.5098" y="9.69995" width="69.064" height="24.6201" filterUnits="userSpaceOnUse" color-interpolation-filters="sRGB">
<feFlood flood-opacity="0" result="BackgroundImageFix"/>
<feColorMatrix in="SourceAlpha" type="matrix" values="0 0 0 0 0 0 0 0 0 0 0 0 0 0 0 0 0 0 127 0" result="hardAlpha"/>
<feOffset dy="4"/>
<feGaussianBlur stdDeviation="2.5"/>
<feComposite in2="hardAlpha" operator="out"/>
<feColorMatrix type="matrix" values="0 0 0 0 0 0 0 0 0 0 0 0 0 0 0 0 0 0 0.15 0"/>
<feBlend mode="normal" in2="BackgroundImageFix" result="effect1_dropShadow_302_4049"/>
<feBlend mode="normal" in="SourceGraphic" in2="effect1_dropShadow_302_4049" result="shape"/>
</filter>
</defs>
</svg>
