<svg width="101" height="59" viewBox="0 0 101 59" fill="none" xmlns="http://www.w3.org/2000/svg">
<g style="mix-blend-mode:difference">
<path d="M50.665 58.4246L50.665 54.5058L42.6399 54.5058C32.2342 54.5058 28.9331 41.9338 28.9331 36.5152L28.9331 29.2123L-0.000113693 29.2123L-0.000113916 37.9289C-0.00011426 51.3565 10.9133 58.4246 30.711 58.4246L50.665 58.4246Z" fill="#FDFEFF"/>
<path d="M50.7295 5.29392e-06L50.7295 3.91872L42.6401 3.91872C32.2344 3.91872 28.9334 16.4908 28.9334 21.9094L28.9334 29.2123L0.000144581 29.2123L0.000145832 20.4956C0.000147759 7.06803 10.9136 -1.58149e-06 30.7113 -7.95126e-07L50.7295 5.29392e-06Z" fill="#FDFEFF"/>
<path d="M50.2695 58.4246L50.2695 54.5058L58.2947 54.5058C68.7004 54.5058 72.0014 41.9338 72.0014 36.5152L72.0014 29.2123L100.935 29.2123L100.935 37.9289C100.935 51.3565 90.0213 58.4246 70.2236 58.4246L50.2695 58.4246Z" fill="#FDFEFF"/>
<path d="M50.2051 5.29392e-06L50.2051 3.91872L58.2944 3.91872C68.7001 3.91872 72.0012 16.4908 72.0012 21.9094L72.0012 29.2123L100.934 29.2123L100.934 20.4956C100.934 7.06803 90.021 -1.58149e-06 70.2233 -7.95126e-07L50.2051 5.29392e-06Z" fill="#FDFEFF"/>
</g>
<g style="mix-blend-mode:difference">
<path d="M43.7035 13.428C38.3977 13.428 34.0835 17.6256 34.0835 22.788V35.748C34.0835 40.9104 38.3977 45.108 43.7035 45.108H57.0235C62.3293 45.108 66.6435 40.9104 66.6435 35.748V22.788C66.6435 17.6256 62.3293 13.428 57.0235 13.428H43.7035ZM59.2435 19.188C60.0575 19.188 60.7235 19.836 60.7235 20.628C60.7235 21.42 60.0575 22.068 59.2435 22.068C58.4295 22.068 57.7635 21.42 57.7635 20.628C57.7635 19.836 58.4295 19.188 59.2435 19.188ZM50.3635 21.348C54.8553 21.348 58.5035 24.8976 58.5035 29.268C58.5035 33.6384 54.8553 37.188 50.3635 37.188C45.8717 37.188 42.2235 33.6384 42.2235 29.268C42.2235 24.8976 45.8717 21.348 50.3635 21.348ZM50.3635 22.788C46.6931 22.788 43.7035 25.6968 43.7035 29.268C43.7035 32.8392 46.6931 35.748 50.3635 35.748C54.0339 35.748 57.0235 32.8392 57.0235 29.268C57.0235 25.6968 54.0339 22.788 50.3635 22.788Z" fill="#F74828"/>
</g>
</svg>
