<svg width="101" height="59" viewBox="0 0 101 59" fill="none" xmlns="http://www.w3.org/2000/svg">
<g style="mix-blend-mode:difference">
<path d="M37.8 15L35 20.6V43H42V47.2H47.6L51.8 43H57.4L65.8 34.6V15H37.8ZM40.6 17.8H63V33.2L58.8 37.4H50.4L46.2 41.6V37.4H40.6V17.8ZM47.6 22V31.8H50.4V22H47.6ZM53.2 22V31.8H56V22H53.2Z" fill="#F74828"/>
</g>
<g style="mix-blend-mode:difference">
<path d="M50.665 58.4246L50.665 54.5058L42.6399 54.5058C32.2342 54.5058 28.9331 41.9338 28.9331 36.5152L28.9331 29.2123L-0.000113693 29.2123L-0.000113916 37.9289C-0.00011426 51.3565 10.9133 58.4246 30.711 58.4246L50.665 58.4246Z" fill="#FDFEFF"/>
<path d="M50.7295 5.29392e-06L50.7295 3.91872L42.6401 3.91872C32.2344 3.91872 28.9334 16.4908 28.9334 21.9094L28.9334 29.2123L0.000144581 29.2123L0.000145832 20.4956C0.000147759 7.06803 10.9136 -1.58149e-06 30.7113 -7.95126e-07L50.7295 5.29392e-06Z" fill="#FDFEFF"/>
<path d="M50.2695 58.4246L50.2695 54.5058L58.2947 54.5058C68.7004 54.5058 72.0014 41.9338 72.0014 36.5152L72.0014 29.2123L100.935 29.2123L100.935 37.9289C100.935 51.3565 90.0213 58.4246 70.2236 58.4246L50.2695 58.4246Z" fill="#FDFEFF"/>
<path d="M50.2051 5.29392e-06L50.2051 3.91872L58.2944 3.91872C68.7001 3.91872 72.0012 16.4908 72.0012 21.9094L72.0012 29.2123L100.934 29.2123L100.934 20.4956C100.934 7.06803 90.021 -1.58149e-06 70.2233 -7.95126e-07L50.2051 5.29392e-06Z" fill="#FDFEFF"/>
</g>
</svg>
