<svg width="101" height="59" viewBox="0 0 101 59" fill="none" xmlns="http://www.w3.org/2000/svg">
<g style="mix-blend-mode:difference">
<path d="M50.665 58.4246L50.665 54.5058L42.6399 54.5058C32.2342 54.5058 28.9331 41.9338 28.9331 36.5152L28.9331 29.2123L-0.000113693 29.2123L-0.000113916 37.9289C-0.00011426 51.3565 10.9133 58.4246 30.711 58.4246L50.665 58.4246Z" fill="#FDFEFF"/>
<path d="M50.7295 5.29392e-06L50.7295 3.91872L42.6401 3.91872C32.2344 3.91872 28.9334 16.4908 28.9334 21.9094L28.9334 29.2123L0.000144581 29.2123L0.000145832 20.4956C0.000147759 7.06803 10.9136 -1.58149e-06 30.7113 -7.95126e-07L50.7295 5.29392e-06Z" fill="#FDFEFF"/>
<path d="M50.2695 58.4246L50.2695 54.5058L58.2947 54.5058C68.7004 54.5058 72.0014 41.9338 72.0014 36.5152L72.0014 29.2123L100.935 29.2123L100.935 37.9289C100.935 51.3565 90.0213 58.4246 70.2236 58.4246L50.2695 58.4246Z" fill="#FDFEFF"/>
<path d="M50.2051 5.29392e-06L50.2051 3.91872L58.2944 3.91872C68.7001 3.91872 72.0012 16.4908 72.0012 21.9094L72.0012 29.2123L100.934 29.2123L100.934 20.4956C100.934 7.06803 90.021 -1.58149e-06 70.2233 -7.95126e-07L50.2051 5.29392e-06Z" fill="#FDFEFF"/>
</g>
<g style="mix-blend-mode:difference">
<path d="M66.7147 20.1801C66.38 18.3327 64.7853 16.9874 62.9347 16.5674C60.1653 15.9801 55.04 15.5601 49.4947 15.5601C43.9527 15.5601 38.7453 15.9801 35.9727 16.5674C34.1253 16.9874 32.5274 18.2474 32.1927 20.1801C31.8547 22.2801 31.52 25.2201 31.52 29.0001C31.52 32.7801 31.8547 35.7201 32.2747 37.8201C32.6127 39.6674 34.2074 41.0127 36.0547 41.4327C38.9947 42.0201 44.0347 42.4401 49.58 42.4401C55.1253 42.4401 60.1653 42.0201 63.1053 41.4327C64.9527 41.0127 66.5474 39.7527 66.8853 37.8201C67.22 35.7201 67.64 32.6947 67.7253 29.0001C67.5547 25.2201 67.1347 22.2801 66.7147 20.1801ZM44.96 34.8801V23.1201L55.2074 29.0001L44.96 34.8801Z" fill="#F74828"/>
</g>
</svg>
