<svg width="461" height="124" viewBox="0 0 461 124" fill="none" xmlns="http://www.w3.org/2000/svg">
<g style="mix-blend-mode:difference" filter="url(#filter0_d_218_4658)">
<path d="M34.3719 51.6926C53.2121 51.6926 67.4885 47.0205 67.4885 27.3975C67.4885 7.77459 53.0951 4.03688 35.6591 4.03688H5V85.7992H20.3296V51.5758C26.2976 51.6926 31.3294 51.6926 34.3719 51.6926ZM20.3296 38.8443V17.002H33.2017C43.9675 17.002 52.51 17.1189 52.51 27.3975C52.51 38.0266 43.2654 38.8443 33.2017 38.8443H20.3296Z" fill="#D8F729"/>
<path d="M76.2083 71.666C76.2083 80.7766 83.2294 85.7992 96.5697 85.7992H105.229V72.4836H97.9739C92.591 72.4836 90.6017 70.9652 90.6017 66.1762V1.1168H76.2083V71.666Z" fill="#D8F729"/>
<path d="M149.528 87.668C167.9 87.668 176.56 75.1701 178.315 69.0963H161.932C160.762 72.0164 155.964 75.4037 148.124 75.4037C136.071 75.4037 130.22 67.3443 130.22 60.9201L179.485 61.0369C179.602 59.9857 179.602 57.1824 179.602 56.0143C179.719 39.8955 167.081 25.6455 146.72 25.6455C126.944 25.6455 113.018 38.8443 113.018 56.2479C113.018 73.6516 125.773 87.668 149.528 87.668ZM130.22 51.3422C130.22 43.9836 137.124 36.9754 147.071 36.9754C156.901 36.9754 162.869 43.2828 162.869 51.3422H130.22Z" fill="#D8F729"/>
<path d="M237.059 31.9529C237.059 35.457 239.048 39.5451 240.219 42.9324L237.761 43.75C236.591 40.4795 235.889 35.6906 233.431 33.2377C229.219 28.6824 223.134 25.6455 215.293 25.6455C198.443 25.6455 186.507 40.0123 186.156 56.832C185.804 74.1189 197.857 87.668 215.41 87.668C223.251 87.668 229.219 84.9816 233.548 80.4262C236.006 77.9734 236.591 73.1844 237.644 69.7971L240.219 70.6148C239.048 74.002 237.059 78.0902 237.059 81.5943V85.7992L251.452 85.6824V1L237.059 1.1168V31.9529ZM217.283 74.2356C206.283 74.2356 200.432 66.8771 200.432 57.0656C200.432 47.1373 206.283 38.9611 217.283 38.9611C228.283 38.9611 234.485 47.1373 234.485 57.0656C234.485 66.8771 228.283 74.2356 217.283 74.2356Z" fill="#D8F729"/>
<path d="M312.493 79.7254C314.833 77.2725 315.418 72.6004 316.588 69.3299L319.046 70.2643C317.876 73.418 315.652 77.3893 315.418 80.7766C315.301 82.4119 315.301 83.9303 315.301 85.7992C315.301 95.7275 309.216 101.684 295.408 101.684C287.568 101.684 281.249 99.582 279.844 91.1721H264.632C265.685 105.656 276.334 115 296.11 115C320.45 115 329.578 103.32 329.695 87.4344V27.3975H315.301L315.535 31.8361C315.769 35.3402 317.876 39.3115 319.163 42.6988L316.706 43.5164C315.418 40.2459 314.716 35.457 312.259 33.0041C307.812 28.332 301.259 25.6455 293.185 25.6455C275.515 25.6455 262.993 38.8443 262.993 56.2479C262.993 73.6516 275.515 87.668 293.185 87.668C301.376 87.668 307.929 84.6311 312.493 79.7254ZM277.27 56.832C277.27 47.0205 283.355 39.5451 294.94 39.5451C305.94 39.5451 312.025 46.3197 312.61 55.3135V58.2336C312.025 67.3443 305.94 73.8852 294.94 73.8852C283.355 73.8852 277.27 66.5266 277.27 56.832Z" fill="#D8F729"/>
<path d="M376.368 87.668C394.74 87.668 403.4 75.1701 405.155 69.0963H388.772C387.602 72.0164 382.804 75.4037 374.964 75.4037C362.911 75.4037 357.06 67.3443 357.06 60.9201L406.325 61.0369C406.442 59.9857 406.442 57.1824 406.442 56.0143C406.559 39.8955 393.921 25.6455 373.56 25.6455C353.783 25.6455 339.858 38.8443 339.858 56.2479C339.858 73.6516 352.613 87.668 376.368 87.668ZM357.06 51.3422C357.06 43.9836 363.964 36.9754 373.911 36.9754C383.74 36.9754 389.708 43.2828 389.708 51.3422H357.06Z" fill="#D8F729"/>
<path d="M436.224 31.4857C439.851 34.1721 441.724 40.0123 443.479 44.1004L445.936 43.0492C444.181 38.9611 441.724 33.5881 441.724 29.1496V27.3975H456V85.7992H441.724V60.3361C441.724 44.1004 426.628 38.9611 412.118 38.9611V25.6455C423.586 25.6455 430.022 26.6967 436.224 31.4857Z" fill="#D8F729"/>
</g>
<defs>
<filter id="filter0_d_218_4658" x="0" y="0" width="461" height="124" filterUnits="userSpaceOnUse" color-interpolation-filters="sRGB">
<feFlood flood-opacity="0" result="BackgroundImageFix"/>
<feColorMatrix in="SourceAlpha" type="matrix" values="0 0 0 0 0 0 0 0 0 0 0 0 0 0 0 0 0 0 127 0" result="hardAlpha"/>
<feOffset dy="4"/>
<feGaussianBlur stdDeviation="2.5"/>
<feComposite in2="hardAlpha" operator="out"/>
<feColorMatrix type="matrix" values="0 0 0 0 0 0 0 0 0 0 0 0 0 0 0 0 0 0 0.15 0"/>
<feBlend mode="normal" in2="BackgroundImageFix" result="effect1_dropShadow_218_4658"/>
<feBlend mode="normal" in="SourceGraphic" in2="effect1_dropShadow_218_4658" result="shape"/>
</filter>
</defs>
</svg>
